<?xml version="1.0" encoding="utf-8"?>
<!-- Print File generated by inkbox ink -->
<svg version="2.0" xmlns="http://www.w3.org/2000/svg" xmlns:xlink="http://www.w3.org/1999/xlink" x="0px" y="0px"
	 viewBox="0 0 824 1170" style="enable-background:new 0 0 824 1170;background-color: white;" xml:space="preserve">
<style type="text/css">
	.st0{fill:none;stroke:#ff0000;stroke-miterlimit:10;}
	.st1{fill:none;stroke:#0000ff;stroke-miterlimit:10;}
</style><rect x="5" y="5" class="st0" width="814" height="1160"/><g id="border"  transform="translate(824)  scale(-1,1)"><path class="st0" transform="translate(43, 23)" d="M201.6,216H14.4c-8,0-14.4-6.4-14.4-14.4V14.4C0,6.4,6.4,0,14.4,0h187.2c8,0,14.4,6.4,14.4,14.4v187.2C216,209.6,209.6,216,201.6,216z"/><path class="st0" transform="translate(268, 23)" d="M201.6,216H14.4c-8,0-14.4-6.4-14.4-14.4V14.4C0,6.4,6.4,0,14.4,0h187.2c8,0,14.4,6.4,14.4,14.4v187.2C216,209.6,209.6,216,201.6,216z"/><path class="st0" transform="translate(493, 23)" d="M201.6,216H14.4c-8,0-14.4-6.4-14.4-14.4V14.4C0,6.4,6.4,0,14.4,0h187.2c8,0,14.4,6.4,14.4,14.4v187.2C216,209.6,209.6,216,201.6,216z"/><path class="st0" transform="translate(43, 248)" d="M201.6,216H14.4c-8,0-14.4-6.4-14.4-14.4V14.4C0,6.4,6.4,0,14.4,0h187.2c8,0,14.4,6.4,14.4,14.4v187.2C216,209.6,209.6,216,201.6,216z"/><path class="st0" transform="translate(268, 248)" d="M201.6,216H14.4c-8,0-14.4-6.4-14.4-14.4V14.4C0,6.4,6.4,0,14.4,0h187.2c8,0,14.4,6.4,14.4,14.4v187.2C216,209.6,209.6,216,201.6,216z"/><path class="st0" transform="translate(493, 248)" d="M201.6,216H14.4c-8,0-14.4-6.4-14.4-14.4V14.4C0,6.4,6.4,0,14.4,0h187.2c8,0,14.4,6.4,14.4,14.4v187.2C216,209.6,209.6,216,201.6,216z"/><path class="st0" transform="translate(43, 473)" d="M201.6,216H14.4c-8,0-14.4-6.4-14.4-14.4V14.4C0,6.4,6.4,0,14.4,0h187.2c8,0,14.4,6.4,14.4,14.4v187.2C216,209.6,209.6,216,201.6,216z"/><path class="st0" transform="translate(268, 473)" d="M201.6,216H14.4c-8,0-14.4-6.4-14.4-14.4V14.4C0,6.4,6.4,0,14.4,0h187.2c8,0,14.4,6.4,14.4,14.4v187.2C216,209.6,209.6,216,201.6,216z"/><path class="st0" transform="translate(493, 473)" d="M201.6,216H14.4c-8,0-14.4-6.4-14.4-14.4V14.4C0,6.4,6.4,0,14.4,0h187.2c8,0,14.4,6.4,14.4,14.4v187.2C216,209.6,209.6,216,201.6,216z"/><path class="st0" transform="translate(43, 698)" d="M201.6,216H14.4c-8,0-14.4-6.4-14.4-14.4V14.4C0,6.4,6.4,0,14.4,0h187.2c8,0,14.4,6.4,14.4,14.4v187.2C216,209.6,209.6,216,201.6,216z"/><path class="st0" transform="translate(268, 698)" d="M201.6,216H14.4c-8,0-14.4-6.4-14.4-14.4V14.4C0,6.4,6.4,0,14.4,0h187.2c8,0,14.4,6.4,14.4,14.4v187.2C216,209.6,209.6,216,201.6,216z"/><path class="st0" transform="translate(493, 698)" d="M201.6,216H14.4c-8,0-14.4-6.4-14.4-14.4V14.4C0,6.4,6.4,0,14.4,0h187.2c8,0,14.4,6.4,14.4,14.4v187.2C216,209.6,209.6,216,201.6,216z"/><path class="st0" transform="translate(49, 920)" d="M345.6,144H14.4c-8,0-14.4-6.4-14.4-14.4V14.4C0,6.4,6.4,0,14.4,0l331.2,0c8,0,14.4,6.4,14.4,14.4v115.2C360,137.6,353.6,144,345.6,144z"/><path class="st0" transform="translate(424, 920)" d="M345.6,144H14.4c-8,0-14.4-6.4-14.4-14.4V14.4C0,6.4,6.4,0,14.4,0l331.2,0c8,0,14.4,6.4,14.4,14.4v115.2C360,137.6,353.6,144,345.6,144z"/></g><g id="inner"  transform="translate(824)  scale(-1,1)"><path class="st1" transform="translate(43, 23)" d="M214,0c0,0-1.6,2.7-7,5.7C200.2,9.4,183.5,9,183.5,9H21C12.4,9.1,9,13.2,9,22.5V191c0,8.3,4.3,16,15.7,16H191c11.7,0,16-7.3,16-16.2v-159C207,17.3,196.5,9,183.5,9"/><path class="st1" transform="translate(268, 23)" d="M214,0c0,0-1.6,2.7-7,5.7C200.2,9.4,183.5,9,183.5,9H21C12.4,9.1,9,13.2,9,22.5V191c0,8.3,4.3,16,15.7,16H191c11.7,0,16-7.3,16-16.2v-159C207,17.3,196.5,9,183.5,9"/><path class="st1" transform="translate(493, 23)" d="M214,0c0,0-1.6,2.7-7,5.7C200.2,9.4,183.5,9,183.5,9H21C12.4,9.1,9,13.2,9,22.5V191c0,8.3,4.3,16,15.7,16H191c11.7,0,16-7.3,16-16.2v-159C207,17.3,196.5,9,183.5,9"/><path class="st1" transform="translate(43, 248)" d="M214,0c0,0-1.6,2.7-7,5.7C200.2,9.4,183.5,9,183.5,9H21C12.4,9.1,9,13.2,9,22.5V191c0,8.3,4.3,16,15.7,16H191c11.7,0,16-7.3,16-16.2v-159C207,17.3,196.5,9,183.5,9"/><path class="st1" transform="translate(268, 248)" d="M214,0c0,0-1.6,2.7-7,5.7C200.2,9.4,183.5,9,183.5,9H21C12.4,9.1,9,13.2,9,22.5V191c0,8.3,4.3,16,15.7,16H191c11.7,0,16-7.3,16-16.2v-159C207,17.3,196.5,9,183.5,9"/><path class="st1" transform="translate(493, 248)" d="M214,0c0,0-1.6,2.7-7,5.7C200.2,9.4,183.5,9,183.5,9H21C12.4,9.1,9,13.2,9,22.5V191c0,8.3,4.3,16,15.7,16H191c11.7,0,16-7.3,16-16.2v-159C207,17.3,196.5,9,183.5,9"/><path class="st1" transform="translate(43, 473)" d="M214,0c0,0-1.6,2.7-7,5.7C200.2,9.4,183.5,9,183.5,9H21C12.4,9.1,9,13.2,9,22.5V191c0,8.3,4.3,16,15.7,16H191c11.7,0,16-7.3,16-16.2v-159C207,17.3,196.5,9,183.5,9"/><path class="st1" transform="translate(268, 473)" d="M214,0c0,0-1.6,2.7-7,5.7C200.2,9.4,183.5,9,183.5,9H21C12.4,9.1,9,13.2,9,22.5V191c0,8.3,4.3,16,15.7,16H191c11.7,0,16-7.3,16-16.2v-159C207,17.3,196.5,9,183.5,9"/><path class="st1" transform="translate(493, 473)" d="M214,0c0,0-1.6,2.7-7,5.7C200.2,9.4,183.5,9,183.5,9H21C12.4,9.1,9,13.2,9,22.5V191c0,8.3,4.3,16,15.7,16H191c11.7,0,16-7.3,16-16.2v-159C207,17.3,196.5,9,183.5,9"/><path class="st1" transform="translate(43, 698)" d="M214,0c0,0-1.6,2.7-7,5.7C200.2,9.4,183.5,9,183.5,9H21C12.4,9.1,9,13.2,9,22.5V191c0,8.3,4.3,16,15.7,16H191c11.7,0,16-7.3,16-16.2v-159C207,17.3,196.5,9,183.5,9"/><path class="st1" transform="translate(268, 698)" d="M214,0c0,0-1.6,2.7-7,5.7C200.2,9.4,183.5,9,183.5,9H21C12.4,9.1,9,13.2,9,22.5V191c0,8.3,4.3,16,15.7,16H191c11.7,0,16-7.3,16-16.2v-159C207,17.3,196.5,9,183.5,9"/><path class="st1" transform="translate(493, 698)" d="M214,0c0,0-1.6,2.7-7,5.7C200.2,9.4,183.5,9,183.5,9H21C12.4,9.1,9,13.2,9,22.5V191c0,8.3,4.3,16,15.7,16H191c11.7,0,16-7.3,16-16.2v-159C207,17.3,196.5,9,183.5,9"/><path class="st1" transform="translate(49, 920)" d="M360,0c-3.6,11.3-16.7,8.8-28.9,9h-309C13.4,8.8,9,15.6,9,23l0.1,97.1c-0.1,8.3,6.5,14.9,14.3,14.9h313.2c11.7,0,14.4-5.6,14.4-14.4V31.4C351,16.9,341.6,9,328.6,9"/><path class="st1" transform="translate(424, 920)" d="M360,0c-3.6,11.3-16.7,8.8-28.9,9h-309C13.4,8.8,9,15.6,9,23l0.1,97.1c-0.1,8.3,6.5,14.9,14.3,14.9h313.2c11.7,0,14.4-5.6,14.4-14.4V31.4C351,16.9,341.6,9,328.6,9"/></g></svg>